# xmcd
#
# Track frame offsets:
#	150
#	14605
#	27190
#	37572
#	45845
#	62635
#	74255
#	89425
#	100787
#	114650
#	128887
#	143080
#	156672
#	173492
#	188337
#	201332
#
# Disc length: 2868 seconds
#
# Revision: 1
# Processed by: cddbd v1.5.1PL0 Copyright (c) Steve Scherf et al.
# Submitted via: CDex 1.50Beta5
#
DISCID=cc0b3210
DTITLE=水木一郎 - テレビアニメスーパーヒストリーVol.25 わが青春のアルカディア 無限軌道SSXからパーマン
DYEAR=1998
DGENRE=
TTITLE0=水木一郎/おれたちの船出
TTITLE1=水木一郎/ハーロックのバラード
TTITLE2=坂本千夏/ぼく、フクちゃんだい!
TTITLE3=こおろぎ’73/フクちゃん
TTITLE4=HARRY/ミッドナイト・サブマリン
TTITLE5=HARRY/ドリーム・シティ・ネオ・トキオ
TTITLE6=堀江美都子/恋は突然
TTITLE7=平塚たかあき/ぼくのジュリアーノ
TTITLE8=MoJo/光速電神アルベガス
TTITLE9=MoJo/若さのフォーメーション
TTITLE10=串田アキラ/キン肉マン Go Fight!
TTITLE11=串田アキラ/肉・2×9・Rock’n Roll
TTITLE12=山野さと子/ポケット宇宙
TTITLE13=大杉久美子/ちいさいかわのうた
TTITLE14=三輪勝恵/きてよパーマン
TTITLE15=古田喜昭/パーマンはそこにいる
EXTD=
EXTT0=
EXTT1=
EXTT2=
EXTT3=
EXTT4=
EXTT5=
EXTT6=
EXTT7=
EXTT8=
EXTT9=
EXTT10=
EXTT11=
EXTT12=
EXTT13=
EXTT14=
EXTT15=
PLAYORDER=
